<?xml version="1.0" encoding="utf-8"?>
<!-- Generator: Adobe Illustrator 25.1.0, SVG Export Plug-In . SVG Version: 6.00 Build 0)  -->
<svg version="1.1" id="Layer_1" xmlns="http://www.w3.org/2000/svg" xmlns:xlink="http://www.w3.org/1999/xlink" x="0px" y="0px"
	 viewBox="0 0 76.1 14.1" style="enable-background:new 0 0 76.1 14.1;" xml:space="preserve">
<style type="text/css">
	.st0{fill:#F3A83B;}
</style>
<path class="st0" d="M13.7,5.1L9.4,4.4l-1.9-4c-0.1-0.3-0.6-0.3-0.8,0l-1.9,4L0.6,5.1c-0.3,0-0.4,0.5-0.2,0.7L3.5,9l-0.7,4.4
	c-0.1,0.4,0.3,0.6,0.6,0.4l3.8-2.1l3.8,2.1c0.3,0.2,0.7-0.1,0.6-0.4L10.8,9l3.1-3.1C14.1,5.6,14,5.1,13.7,5.1L13.7,5.1z"/>
<path class="st0" d="M29.2,5.1L25,4.4l-1.9-4c-0.1-0.3-0.6-0.3-0.8,0l-1.9,4L16.2,5c-0.3,0.1-0.5,0.5-0.2,0.7L19,9l-0.7,4.4
	c-0.1,0.4,0.3,0.6,0.6,0.4l3.8-2.1l3.8,2.1c0.3,0.2,0.7-0.1,0.6-0.4L26.4,9l3.1-3.1C29.7,5.6,29.5,5.1,29.2,5.1L29.2,5.1z"/>
<path class="st0" d="M44.7,5.1l-4.2-0.6l-1.9-4c-0.1-0.3-0.6-0.3-0.8,0l-1.9,4l-4.2,0.6c-0.3,0.1-0.5,0.5-0.2,0.7l3,3.2l-0.7,4.4
	c-0.1,0.4,0.3,0.6,0.6,0.4l3.8-2.1l3.8,2.1c0.3,0.2,0.7-0.1,0.6-0.4L41.9,9L45,5.9C45.2,5.6,45,5.1,44.7,5.1L44.7,5.1z"/>
<path class="st0" d="M60.1,5.1l-4.2-0.6l-1.9-4c-0.1-0.3-0.6-0.3-0.8,0l-1.9,4l-4.2,0.6c-0.3,0.1-0.5,0.5-0.2,0.7l3,3.2l-0.7,4.4
	c-0.1,0.4,0.3,0.6,0.6,0.4l3.8-2.1l3.8,2.1c0.3,0.2,0.7-0.1,0.6-0.4L57.2,9l3.1-3.1C60.6,5.6,60.4,5.1,60.1,5.1L60.1,5.1z"/>
<path class="st0" d="M75.4,5.1l-4.2-0.6l-1.9-4c-0.1-0.3-0.6-0.3-0.8,0l-1.9,4l-4.2,0.6c-0.3,0.1-0.5,0.5-0.2,0.7l3,3.2l-0.7,4.4
	c-0.1,0.4,0.3,0.6,0.6,0.4l3.8-2.1l3.8,2.1c0.3,0.2,0.7-0.1,0.6-0.4L72.6,9l3.1-3.1C75.9,5.6,75.7,5.1,75.4,5.1L75.4,5.1z"/>
</svg>
