<?xml version="1.0" encoding="utf-8"?>
<!-- Generator: Adobe Illustrator 26.3.1, SVG Export Plug-In . SVG Version: 6.00 Build 0)  -->
<svg version="1.1" id="Layer_1" xmlns="http://www.w3.org/2000/svg" xmlns:xlink="http://www.w3.org/1999/xlink" x="0px" y="0px"
	 viewBox="0 0 542.2 89.2" style="enable-background:new 0 0 542.2 89.2;" xml:space="preserve">
<style type="text/css">
	.st0{fill:#1C2C63;}
	.st1{fill:url(#SVGID_1_);}
	.st2{fill:url(#SVGID_00000095333777572649464220000004340773643137625474_);}
	.st3{fill:url(#SVGID_00000000196367801849582640000013163018468278216883_);}
</style>
<g>
	<path class="st0" d="M536.4,26.5c-1.5,1.5-3.4,2.4-5.4,2.9c-2.1,0.4-4.1,0.2-6.1-0.6c-1.9-0.8-3.6-2.2-4.7-3.9
		c-1.2-1.8-1.8-3.8-1.8-5.9c-0.1-1.4,0.3-2.9,0.8-4.2c0.6-1.3,1.4-2.5,2.5-3.5c2-1.9,4.6-2.9,7.3-2.9c2.8,0,5.5,1.1,7.4,3.1
		s3.1,4.7,3.1,7.4c0.1,1.4-0.2,2.8-0.8,4.1C538.2,24.4,537.4,25.6,536.4,26.5z M522.8,12.9c-1.6,1.6-2.6,3.9-2.5,6.2
		c0,2.3,0.9,4.5,2.6,6.2c0.8,0.8,1.8,1.5,2.8,1.9c1.1,0.4,2.2,0.7,3.4,0.7s2.3-0.2,3.4-0.7c1.1-0.4,2-1.1,2.8-1.9
		c0.8-0.8,1.5-1.8,1.9-2.9c0.4-1.1,0.6-2.2,0.6-3.4s-0.2-2.3-0.6-3.3c-0.4-1.1-1.1-2-1.9-2.8c-0.8-0.9-1.8-1.5-2.8-2
		c-1.1-0.5-2.2-0.7-3.4-0.7s-2.3,0.2-3.4,0.7C524.5,11.4,523.6,12,522.8,12.9L522.8,12.9z M524.4,24.8V13.1h3.2c1.4,0,2.2,0,2.4,0
		c0.8,0.1,1.6,0.3,2.3,0.6c0.5,0.3,0.9,0.7,1.2,1.2c0.3,0.5,0.4,1.1,0.4,1.6c0,1-0.3,1.7-0.9,2.1c-0.6,0.4-1.3,0.7-2,0.8
		c0.6,0.1,1.2,0.3,1.6,0.7c0.7,0.6,1,1.4,1,2.6v1.1c0,0.1,0,0.2,0,0.3s0.1,0.2,0.1,0.3l0.1,0.3H531c-0.1-0.5-0.2-1.1-0.2-1.6
		c0-0.5-0.1-1-0.2-1.4c-0.1-0.2-0.2-0.4-0.3-0.5c-0.2-0.2-0.3-0.3-0.5-0.3c-0.3-0.1-0.7-0.2-1.1-0.2l-0.7-0.1h-0.6v4.1L524.4,24.8z
		 M530,15.4c-0.6-0.2-1.2-0.3-1.8-0.3h-0.7v3.4h1.2c0.6,0.1,1.2-0.1,1.7-0.4c0.2-0.2,0.4-0.4,0.5-0.6s0.2-0.5,0.1-0.8
		c0-0.3-0.1-0.6-0.3-0.8C530.5,15.7,530.2,15.5,530,15.4L530,15.4z"/>
	<g>
		
			<linearGradient id="SVGID_1_" gradientUnits="userSpaceOnUse" x1="17.7566" y1="89.7188" x2="47.0673" y2="4.4511" gradientTransform="matrix(1 -4.164797e-03 4.164797e-03 1 -0.7089 -1.6922)">
			<stop  offset="0" style="stop-color:#69DAD1"/>
			<stop  offset="0.2458" style="stop-color:#5BC1BC"/>
			<stop  offset="0.6824" style="stop-color:#45999B"/>
			<stop  offset="0.9095" style="stop-color:#3D8A8E"/>
		</linearGradient>
		<path class="st1" d="M29.1,7.2c0-0.7,4.1-1.4,9-2.3c7.6-1.4,10.5-2.3,11.4-1c0.2,0.4,0.4,1-0.1,2.3c-1,2.5-1.9,5.1-2.9,7.6
			c-1.7,3.3-3.4,6.8-5,10.5c-1.3,3-2.5,5.9-3.5,8.6c0,0.4,0,1,0.4,1.6c0.8,1.1,2.4,1.2,3.3,1.2c7.2,0.2,8.7-0.2,9.2,0.5
			c0.7,1.1-1.7,3.5-5.9,8.5c-2.1,2.5-4.1,5.2-6.2,7.7c-3.4,4-10.7,12.8-27.1,33.6c0.7-1.5,1.8-3.9,3.3-6.9c1.4-2.8,2.4-4.8,2.8-5.5
			c1.6-3,4.5-8.8,10.4-20.8c0.2-0.4,0.4-1.3,0-2.1c-0.9-1.6-4-1.4-4.9-1.3c-1.7,0.1-3.5,0.1-5.2,0.2c-0.4-0.1-1.3-0.4-1.9-1.2
			c-0.9-1.2-0.9-3.2,0.2-4.8c4.7-9.7,9.5-19.3,14.2-29c1.3-2.1,2.3-4.5,1.4-5.8C31.2,7.5,29.2,7.7,29.1,7.2z"/>
		
			<linearGradient id="SVGID_00000145038677015778407960000002670315946821380227_" gradientUnits="userSpaceOnUse" x1="40.9461" y1="79.6577" x2="61.3323" y2="20.3525" gradientTransform="matrix(1 -4.164797e-03 4.164797e-03 1 -0.7089 -1.6922)">
			<stop  offset="0" style="stop-color:#69DAD1"/>
			<stop  offset="0.2458" style="stop-color:#5BC1BC"/>
			<stop  offset="0.6824" style="stop-color:#45999B"/>
			<stop  offset="0.9095" style="stop-color:#3D8A8E"/>
		</linearGradient>
		<path style="fill:url(#SVGID_00000145038677015778407960000002670315946821380227_);" d="M48.6,14.3c-0.8,1.7-1.6,3.5-2.4,5.2
			c1,0.6,2.3,1.6,3.7,2.9c1.8,1.6,6.5,6.1,8.4,13.5c0.4,1.3,2,8-0.7,15.8c-0.8,2.3-3.8,10.5-12.6,15.2c-7.4,3.9-14.5,3-16.9,2.6
			c-0.7,1.2-1.3,2.3-2,3.5c1.2,0.3,3,0.7,5,0.9c2.5,0.3,9,0.9,16.3-2.2c2.1-0.9,9-3.9,13.9-11.3c5.7-8.7,5-17.6,4.7-20.2
			c-1-10.3-6.8-16.8-8.4-18.7C54.4,17.8,50.9,15.5,48.6,14.3z"/>
		
			<linearGradient id="SVGID_00000028301655927451729770000013859643772416092800_" gradientUnits="userSpaceOnUse" x1="7.0445" y1="66.809" x2="25.6397" y2="12.7137" gradientTransform="matrix(1 -4.164797e-03 4.164797e-03 1 -0.7089 -1.6922)">
			<stop  offset="0" style="stop-color:#69DAD1"/>
			<stop  offset="0.2458" style="stop-color:#5BC1BC"/>
			<stop  offset="0.6824" style="stop-color:#45999B"/>
			<stop  offset="0.9095" style="stop-color:#3D8A8E"/>
		</linearGradient>
		<path style="fill:url(#SVGID_00000028301655927451729770000013859643772416092800_);" d="M28.9,12.2c-0.5,1.3-1,2.6-1.4,3.9
			c-1.1,0.1-2.6,0.4-4.4,0.9c-4,1.3-6.5,3.5-8.2,4.9c-1.5,1.3-4.7,4.1-7,8.8c-0.5,1.1-3.3,6.8-2.7,14.1c1,13,12,20.4,13.5,21.3
			c-0.3,0.9-0.6,1.8-0.9,2.7c-1.7-1-4.1-2.6-6.4-5.2C5,56.9,4.1,48.8,3.8,46.2c-0.3-2.5-1-11,4.2-19.5
			C14.9,15.3,26.8,12.7,28.9,12.2z"/>
	</g>
</g>
<g>
	<path class="st0" d="M129.6,21.7l-20.1,46.4H98.9l-20-46.4h11.6l14.1,33.1l14.3-33.1H129.6z"/>
	<path class="st0" d="M141.7,65.8c-3.9-2.1-6.9-4.9-9.1-8.6c-2.2-3.6-3.3-7.7-3.3-12.3c0-4.6,1.1-8.7,3.3-12.3
		c2.2-3.6,5.2-6.5,9.1-8.6c3.9-2.1,8.2-3.1,13-3.1c4.8,0,9.1,1,13,3.1c3.8,2.1,6.9,4.9,9.1,8.6c2.2,3.6,3.3,7.7,3.3,12.3
		c0,4.6-1.1,8.7-3.3,12.3c-2.2,3.6-5.2,6.5-9.1,8.6c-3.8,2.1-8.2,3.1-13,3.1C149.9,68.9,145.5,67.9,141.7,65.8z M162.1,57.9
		c2.2-1.3,3.9-3,5.2-5.3s1.9-4.8,1.9-7.7c0-2.9-0.6-5.4-1.9-7.7c-1.3-2.3-3-4-5.2-5.3c-2.2-1.3-4.7-1.9-7.4-1.9
		c-2.7,0-5.2,0.6-7.4,1.9c-2.2,1.3-3.9,3-5.2,5.3c-1.3,2.3-1.9,4.8-1.9,7.7c0,2.9,0.6,5.4,1.9,7.7c1.3,2.3,3,4,5.2,5.3
		c2.2,1.3,4.7,1.9,7.4,1.9C157.4,59.7,159.9,59.1,162.1,57.9z"/>
	<path class="st0" d="M187.5,21.7h10.7v37.6h23.3v8.7h-34V21.7z"/>
	<path class="st0" d="M232.2,30.5h-14.8v-8.7h40.4v8.7h-14.8v37.6h-10.7V30.5z"/>
	<path class="st0" d="M303.2,48.2c1.5,2,2.3,4.4,2.3,7.3c0,4.1-1.6,7.2-4.7,9.4c-3.2,2.2-7.8,3.3-13.8,3.3h-24V21.7h22.7
		c5.7,0,10,1.1,13,3.2c3,2.2,4.5,5.1,4.5,8.8c0,2.3-0.5,4.3-1.6,6c-1.1,1.8-2.6,3.2-4.5,4.2C299.6,44.8,301.7,46.2,303.2,48.2z
		 M273.6,29.8v10.9h10.7c2.7,0,4.7-0.5,6-1.4c1.4-0.9,2.1-2.3,2.1-4.1c0-1.8-0.7-3.2-2.1-4.1c-1.4-0.9-3.4-1.4-6-1.4H273.6z
		 M292.5,58.6c1.4-0.9,2.2-2.4,2.2-4.3c0-3.8-2.9-5.8-8.6-5.8h-12.5V60h12.5C288.9,60,291,59.6,292.5,58.6z"/>
	<path class="st0" d="M318.1,63.4c-3.7-3.7-5.5-8.9-5.5-15.7v-26h10.7v25.6c0,8.3,3.4,12.5,10.3,12.5c3.4,0,5.9-1,7.7-3
		c1.8-2,2.7-5.2,2.7-9.4V21.7h10.6v26c0,6.8-1.8,12-5.5,15.7c-3.7,3.7-8.8,5.5-15.5,5.5S321.7,67.1,318.1,63.4z"/>
	<path class="st0" d="M364.5,21.7h21.1c5,0,9.5,1,13.4,2.9c3.9,1.9,6.9,4.6,9,8.1c2.1,3.5,3.2,7.6,3.2,12.2s-1.1,8.7-3.2,12.2
		c-2.1,3.5-5.1,6.2-9,8.1c-3.9,1.9-8.3,2.9-13.4,2.9h-21.1V21.7z M385,59.3c4.6,0,8.3-1.3,11.1-3.9c2.8-2.6,4.1-6.1,4.1-10.5
		c0-4.4-1.4-7.9-4.1-10.5c-2.8-2.6-6.5-3.9-11.1-3.9h-9.8v28.8H385z"/>
	<path class="st0" d="M418.6,21.7h21.1c5,0,9.5,1,13.4,2.9c3.9,1.9,6.9,4.6,9,8.1c2.1,3.5,3.2,7.6,3.2,12.2s-1.1,8.7-3.2,12.2
		c-2.1,3.5-5.1,6.2-9,8.1c-3.9,1.9-8.3,2.9-13.4,2.9h-21.1V21.7z M439.1,59.3c4.6,0,8.3-1.3,11.1-3.9c2.8-2.6,4.1-6.1,4.1-10.5
		c0-4.4-1.4-7.9-4.1-10.5c-2.8-2.6-6.5-3.9-11.1-3.9h-9.8v28.8H439.1z"/>
	<path class="st0" d="M492.9,51.7v16.4h-10.7V51.5l-18-29.8h11.4L488,42.3l12.4-20.6H511L492.9,51.7z"/>
</g>
</svg>
