<?xml version="1.0" encoding="utf-8"?>
<!-- Generator: Adobe Illustrator 24.0.1, SVG Export Plug-In . SVG Version: 6.00 Build 0)  -->
<svg version="1.1" id="Capa_1" xmlns="http://www.w3.org/2000/svg" xmlns:xlink="http://www.w3.org/1999/xlink" x="0px" y="0px"
	 viewBox="0 0 60.7 57.7" style="enable-background:new 0 0 60.7 57.7;" xml:space="preserve">
<style type="text/css">
	.st0{fill:#F7F7F7;}
	.st1{fill:#7E8DAA;}
</style>
<rect class="st0" width="60.7" height="57.7"/>
<g>
	<g>
		<path class="st1" d="M2.8,55.8c1.7-0.9,3.5-1.9,5.2-2.7s3.5-1.5,5.3-2.3c1.7-0.7,3.3-1.4,5-2.1c0.3-0.1,0.6-0.4,0.7-0.7
			c0.4-0.9,0.7-1.9,1-2.8c0.2-0.7,0.4-1.4,1.3-1.6c0.2,0,0.5-0.4,0.6-0.7c0.2-1.4,0.3-2.8,0.4-4.2c0-0.3-0.1-0.7-0.3-0.9
			c-1.2-1.4-1.9-2.9-2.2-4.8c-0.1-0.9-0.6-1.8-0.9-2.6c-0.3-1.2-0.6-2.4-0.9-3.6c-0.1-0.4,0-0.9-0.1-1.4c-0.1-0.7-0.1-1.2,0.7-1.4
			c0.2-0.1,0.4-0.6,0.4-0.9c0-1.9,0-3.9,0-5.8c0-1.2,0-2.4,0.1-3.6c0.2-2.3,1.5-3.9,3.2-5.3c2.5-2,5.4-3,8.4-3.7
			c1.6-0.4,3.2-0.6,4.8-0.9c0.4-0.1,0.9,0,1.3,0c0,0,0.1,0.1,0.2,0.2c-0.3,0.2-0.7,0.4-1,0.7c-0.7,0.7-0.6,1.1,0.1,1.7
			c1.5,1.2,2.9,2.5,4.3,3.7c1.2,1.1,1.7,2.6,1.7,4.2c0,2.8,0,5.7,0,8.5c0,0.6,0,1.2,0.7,1.4c0.2,0.1,0.3,0.4,0.3,0.6
			c-0.1,1.5-0.3,2.9-0.4,4.4c0,0.1,0,0.1,0,0.2c-1.3,1.9-1.5,4.2-2.4,6.3c0,0.1-0.1,0.2-0.1,0.2c-1.7,2-1.2,4.5-1.2,6.8
			c0,0.2,0.2,0.6,0.4,0.7c0.7,0.3,0.9,0.9,1.1,1.6c0.3,1,0.6,2,1,3c0.2,0.4,0.6,0.7,1,0.8c5.3,2,10.6,4.2,15.7,6.8
			c1,0.5,1.9,1.2,2.6,1.9V0C40.4,0,20.2,0,0,0v57.7C0.8,56.9,1.8,56.3,2.8,55.8z"/>
	</g>
</g>
</svg>
